<?xml version="1.0" encoding="UTF-8" standalone="no"?>
<!DOCTYPE svg PUBLIC "-//W3C//DTD SVG 1.1//EN"
 "http://www.w3.org/Graphics/SVG/1.1/DTD/svg11.dtd">
<!-- Generated by graphviz version 2.38.0 (20140413.2041)
 -->
<!-- Title: bank&#45;flow Pages: 1 -->
<svg width="1132pt" height="1103pt"
 viewBox="0.00 0.00 1132.50 1103.17" xmlns="http://www.w3.org/2000/svg" xmlns:xlink="http://www.w3.org/1999/xlink">
<g id="graph0" class="graph" transform="scale(1 1) rotate(0) translate(4 1099.17)">
<title>bank&#45;flow</title>
<polygon fill="white" stroke="none" points="-4,4 -4,-1099.17 1128.5,-1099.17 1128.5,4 -4,4"/>
<!-- wages -->
<g id="node1" class="node"><title>wages</title>
<ellipse fill="none" stroke="black" cx="36" cy="-727.61" rx="36" ry="18"/>
<text text-anchor="middle" x="36" y="-723.41" font-family="Times,serif" font-size="14.00">wages</text>
</g>
<!-- lloydsCurrent -->
<g id="node2" class="node"><title>lloydsCurrent</title>
<ellipse fill="none" stroke="black" cx="770.89" cy="-643.812" rx="66.0439" ry="25.4118"/>
<text text-anchor="middle" x="770.89" y="-646.612" font-family="Times,serif" font-size="14.00">lloyds current</text>
<text text-anchor="middle" x="770.89" y="-632.612" font-family="Times,serif" font-size="14.00">2%</text>
</g>
<!-- wages&#45;&gt;lloydsCurrent -->
<g id="edge19" class="edge"><title>wages&#45;&gt;lloydsCurrent</title>
<path fill="none" stroke="black" d="M71.4453,-723.568C185.026,-710.617 541.57,-669.961 697.108,-652.226"/>
<polygon fill="black" stroke="black" points="697.966,-655.65 707.505,-651.04 697.173,-648.695 697.966,-655.65"/>
<text text-anchor="middle" x="374.956" y="-690.697" font-family="Times,serif" font-size="14.00">???</text>
</g>
<!-- halifaxCurrent -->
<g id="node5" class="node"><title>halifaxCurrent</title>
<ellipse fill="none" stroke="black" cx="950.877" cy="-563.675" rx="69.1087" ry="25.4118"/>
<text text-anchor="middle" x="950.877" y="-566.475" font-family="Times,serif" font-size="14.00">halifax current</text>
<text text-anchor="middle" x="950.877" y="-552.475" font-family="Times,serif" font-size="14.00">£3pm</text>
</g>
<!-- lloydsCurrent&#45;&gt;halifaxCurrent -->
<g id="edge11" class="edge"><title>lloydsCurrent&#45;&gt;halifaxCurrent</title>
<path fill="none" stroke="black" d="M822.068,-627.675C848.589,-616.873 880.666,-602.571 906.182,-590.163"/>
<polygon fill="black" stroke="black" points="907.841,-593.247 915.263,-585.687 904.746,-586.968 907.841,-593.247"/>
<text text-anchor="middle" x="850.125" y="-611.719" font-family="Times,serif" font-size="14.00">£800</text>
</g>
<!-- halifaxIsa -->
<g id="node6" class="node"><title>halifaxIsa</title>
<ellipse fill="none" stroke="black" cx="543.455" cy="-1069.71" rx="52.0409" ry="25.4118"/>
<text text-anchor="middle" x="543.455" y="-1072.51" font-family="Times,serif" font-size="14.00">halifax isa</text>
<text text-anchor="middle" x="543.455" y="-1058.51" font-family="Times,serif" font-size="14.00">3.5%</text>
</g>
<!-- lloydsCurrent&#45;&gt;halifaxIsa -->
<g id="edge15" class="edge"><title>lloydsCurrent&#45;&gt;halifaxIsa</title>
<path fill="none" stroke="black" d="M757.512,-668.864C718.637,-741.662 605.654,-953.237 561.468,-1035.98"/>
<polygon fill="black" stroke="black" points="558.297,-1034.49 556.673,-1044.96 564.471,-1037.79 558.297,-1034.49"/>
<text text-anchor="middle" x="645.49" y="-855.223" font-family="Times,serif" font-size="14.00">£200</text>
</g>
<!-- netflix -->
<g id="node7" class="node"><title>netflix</title>
<ellipse fill="none" stroke="black" cx="456.78" cy="-939.588" rx="32.9168" ry="18"/>
<text text-anchor="middle" x="456.78" y="-935.388" font-family="Times,serif" font-size="14.00">netflix</text>
</g>
<!-- lloydsCurrent&#45;&gt;netflix -->
<g id="edge7" class="edge"><title>lloydsCurrent&#45;&gt;netflix</title>
<path fill="none" stroke="lightgreen" d="M745.716,-667.517C686.623,-723.16 539.626,-861.578 481.244,-916.552"/>
<polygon fill="lightgreen" stroke="lightgreen" points="478.494,-914.334 473.613,-923.738 483.293,-919.43 478.494,-914.334"/>
<text text-anchor="middle" x="597.73" y="-794.834" font-family="Times,serif" font-size="14.00">£8.99</text>
</g>
<!-- giffGaff -->
<g id="node8" class="node"><title>giffGaff</title>
<ellipse fill="none" stroke="black" cx="415.77" cy="-802.347" rx="39.0243" ry="18"/>
<text text-anchor="middle" x="415.77" y="-798.147" font-family="Times,serif" font-size="14.00">giff gaff</text>
</g>
<!-- lloydsCurrent&#45;&gt;giffGaff -->
<g id="edge8" class="edge"><title>lloydsCurrent&#45;&gt;giffGaff</title>
<path fill="none" stroke="lightgreen" d="M727.7,-663.093C657.405,-694.475 519.443,-756.065 453.117,-785.675"/>
<polygon fill="lightgreen" stroke="lightgreen" points="451.573,-782.531 443.868,-789.804 454.426,-788.923 451.573,-782.531"/>
<text text-anchor="middle" x="583.409" y="-727.184" font-family="Times,serif" font-size="14.00">£5</text>
</g>
<!-- mAndS -->
<g id="node9" class="node"><title>mAndS</title>
<ellipse fill="none" stroke="black" cx="984.202" cy="-880.717" rx="61.1445" ry="25.4118"/>
<text text-anchor="middle" x="984.202" y="-883.517" font-family="Times,serif" font-size="14.00">m&amp;s current</text>
<text text-anchor="middle" x="984.202" y="-869.517" font-family="Times,serif" font-size="14.00">£10pm</text>
</g>
<!-- lloydsCurrent&#45;&gt;mAndS -->
<g id="edge13" class="edge"><title>lloydsCurrent&#45;&gt;mAndS</title>
<path fill="none" stroke="black" d="M787.876,-668.874C823.098,-712.787 904.18,-803.2 950.426,-850.492"/>
<polygon fill="black" stroke="black" points="948.021,-853.038 957.536,-857.698 953.004,-848.121 948.021,-853.038"/>
<text text-anchor="middle" x="851.651" y="-762.483" font-family="Times,serif" font-size="14.00">£1000</text>
</g>
<!-- salvationArmy -->
<g id="node10" class="node"><title>salvationArmy</title>
<ellipse fill="none" stroke="black" cx="419.762" cy="-629.813" rx="62.3326" ry="18"/>
<text text-anchor="middle" x="419.762" y="-625.613" font-family="Times,serif" font-size="14.00">salvation army</text>
</g>
<!-- lloydsCurrent&#45;&gt;salvationArmy -->
<g id="edge9" class="edge"><title>lloydsCurrent&#45;&gt;salvationArmy</title>
<path fill="none" stroke="lightblue" d="M704.845,-641.179C644.157,-638.76 554.397,-635.181 491.864,-632.688"/>
<polygon fill="lightblue" stroke="lightblue" points="491.815,-629.183 481.683,-632.282 491.536,-636.178 491.815,-629.183"/>
<text text-anchor="middle" x="591.355" y="-639.734" font-family="Times,serif" font-size="14.00">£2</text>
</g>
<!-- waterAid -->
<g id="node11" class="node"><title>waterAid</title>
<ellipse fill="none" stroke="black" cx="791.485" cy="-839.755" rx="42.5219" ry="18"/>
<text text-anchor="middle" x="791.485" y="-835.555" font-family="Times,serif" font-size="14.00">water aid</text>
</g>
<!-- lloydsCurrent&#45;&gt;waterAid -->
<g id="edge10" class="edge"><title>lloydsCurrent&#45;&gt;waterAid</title>
<path fill="none" stroke="lightblue" d="M773.582,-669.428C777.433,-706.062 784.488,-773.189 788.496,-811.318"/>
<polygon fill="lightblue" stroke="lightblue" points="785.062,-812.125 789.588,-821.705 792.023,-811.394 785.062,-812.125"/>
<text text-anchor="middle" x="774.039" y="-743.173" font-family="Times,serif" font-size="14.00">£2</text>
</g>
<!-- tsbCreditCard -->
<g id="node12" class="node"><title>tsbCreditCard</title>
<ellipse fill="none" stroke="black" cx="492.75" cy="-450.698" rx="60.3942" ry="18"/>
<text text-anchor="middle" x="492.75" y="-446.498" font-family="Times,serif" font-size="14.00">tsb credit card</text>
</g>
<!-- lloydsCurrent&#45;&gt;tsbCreditCard -->
<g id="edge14" class="edge"><title>lloydsCurrent&#45;&gt;tsbCreditCard</title>
<path fill="none" stroke="lightblue" d="M738.712,-621.471C685.206,-584.322 578.544,-510.266 524.994,-473.086"/>
<polygon fill="lightblue" stroke="lightblue" points="526.773,-470.06 516.563,-467.232 522.781,-475.81 526.773,-470.06"/>
<text text-anchor="middle" x="604.834" y="-550.078" font-family="Times,serif" font-size="14.00">credit bill</text>
</g>
<!-- nationwideCurrent -->
<g id="node14" class="node"><title>nationwideCurrent</title>
<ellipse fill="none" stroke="black" cx="850.172" cy="-408.942" rx="85.6133" ry="25.4118"/>
<text text-anchor="middle" x="850.172" y="-411.742" font-family="Times,serif" font-size="14.00">nationwide current</text>
<text text-anchor="middle" x="850.172" y="-397.742" font-family="Times,serif" font-size="14.00">5%</text>
</g>
<!-- lloydsCurrent&#45;&gt;nationwideCurrent -->
<g id="edge12" class="edge"><title>lloydsCurrent&#45;&gt;nationwideCurrent</title>
<path fill="none" stroke="black" d="M784.059,-618.754C801.281,-576.782 829.983,-492.214 843.433,-444.241"/>
<polygon fill="black" stroke="black" points="846.812,-445.157 846.062,-434.588 840.058,-443.317 846.812,-445.157"/>
<text text-anchor="middle" x="796.246" y="-534.297" font-family="Times,serif" font-size="14.00">£1000</text>
</g>
<!-- tsbCurrent -->
<g id="node3" class="node"><title>tsbCurrent</title>
<ellipse fill="none" stroke="black" cx="807.43" cy="-202.134" rx="53.2444" ry="25.4118"/>
<text text-anchor="middle" x="807.43" y="-204.934" font-family="Times,serif" font-size="14.00">tsb current</text>
<text text-anchor="middle" x="807.43" y="-190.934" font-family="Times,serif" font-size="14.00">3%</text>
</g>
<!-- tsbSavings -->
<g id="node4" class="node"><title>tsbSavings</title>
<ellipse fill="none" stroke="black" cx="770.915" cy="-25.4558" rx="55.0794" ry="25.4118"/>
<text text-anchor="middle" x="770.915" y="-28.2558" font-family="Times,serif" font-size="14.00">tsb savings</text>
<text text-anchor="middle" x="770.915" y="-14.2558" font-family="Times,serif" font-size="14.00">5%</text>
</g>
<!-- tsbCurrent&#45;&gt;tsbSavings -->
<g id="edge18" class="edge"><title>tsbCurrent&#45;&gt;tsbSavings</title>
<path fill="none" stroke="black" d="M802.121,-176.443C795.829,-146 785.31,-95.1052 778.245,-60.9217"/>
<polygon fill="black" stroke="black" points="781.624,-59.9753 776.172,-50.8907 774.769,-61.3921 781.624,-59.9753"/>
<text text-anchor="middle" x="776.183" y="-121.482" font-family="Times,serif" font-size="14.00">£250</text>
</g>
<!-- halifaxCurrent&#45;&gt;lloydsCurrent -->
<g id="edge1" class="edge"><title>halifaxCurrent&#45;&gt;lloydsCurrent</title>
<path fill="none" stroke="black" d="M898.25,-580.404C871.885,-591.187 840.324,-605.282 815.21,-617.507"/>
<polygon fill="black" stroke="black" points="813.343,-614.526 805.925,-622.09 816.441,-620.803 813.343,-614.526"/>
<text text-anchor="middle" x="842.73" y="-587.756" font-family="Times,serif" font-size="14.00">£800</text>
</g>
<!-- halifaxCurrent&#45;&gt;waterAid -->
<g id="edge2" class="edge"><title>halifaxCurrent&#45;&gt;waterAid</title>
<path fill="none" stroke="lightblue" d="M936.451,-588.663C906.45,-640.627 837.572,-759.929 806.811,-813.21"/>
<polygon fill="lightblue" stroke="lightblue" points="803.668,-811.653 801.699,-822.064 809.73,-815.153 803.668,-811.653"/>
<text text-anchor="middle" x="864.631" y="-703.736" font-family="Times,serif" font-size="14.00">£2</text>
</g>
<!-- redCross -->
<g id="node13" class="node"><title>redCross</title>
<ellipse fill="none" stroke="black" cx="1082.71" cy="-710.09" rx="41.5699" ry="18"/>
<text text-anchor="middle" x="1082.71" y="-705.89" font-family="Times,serif" font-size="14.00">red cross</text>
</g>
<!-- halifaxCurrent&#45;&gt;redCross -->
<g id="edge3" class="edge"><title>halifaxCurrent&#45;&gt;redCross</title>
<path fill="none" stroke="lightblue" d="M972.647,-587.853C997.009,-614.91 1036.26,-658.503 1060.72,-685.661"/>
<polygon fill="lightblue" stroke="lightblue" points="1058.2,-688.103 1067.5,-693.192 1063.41,-683.419 1058.2,-688.103"/>
<text text-anchor="middle" x="1009.68" y="-639.557" font-family="Times,serif" font-size="14.00">£2</text>
</g>
<!-- mAndS&#45;&gt;lloydsCurrent -->
<g id="edge4" class="edge"><title>mAndS&#45;&gt;lloydsCurrent</title>
<path fill="none" stroke="black" d="M967.573,-856.102C932.671,-812.516 851.655,-722.144 805.169,-674.552"/>
<polygon fill="black" stroke="black" points="807.529,-671.961 798.017,-667.295 802.543,-676.874 807.529,-671.961"/>
<text text-anchor="middle" x="903.871" y="-768.127" font-family="Times,serif" font-size="14.00">£1000</text>
</g>
<!-- mAndS&#45;&gt;waterAid -->
<g id="edge5" class="edge"><title>mAndS&#45;&gt;waterAid</title>
<path fill="none" stroke="lightblue" d="M929.749,-869.143C901.522,-863.143 867.336,-855.877 840.02,-850.071"/>
<polygon fill="lightblue" stroke="lightblue" points="840.423,-846.578 829.914,-847.923 838.967,-853.425 840.423,-846.578"/>
<text text-anchor="middle" x="877.885" y="-862.407" font-family="Times,serif" font-size="14.00">£2</text>
</g>
<!-- mAndS&#45;&gt;redCross -->
<g id="edge6" class="edge"><title>mAndS&#45;&gt;redCross</title>
<path fill="none" stroke="lightblue" d="M998.526,-855.906C1016.88,-824.108 1048.58,-769.205 1067.4,-736.605"/>
<polygon fill="lightblue" stroke="lightblue" points="1070.61,-738.057 1072.58,-727.647 1064.54,-734.557 1070.61,-738.057"/>
<text text-anchor="middle" x="1025.96" y="-799.056" font-family="Times,serif" font-size="14.00">£2</text>
</g>
<!-- nationwideCurrent&#45;&gt;lloydsCurrent -->
<g id="edge17" class="edge"><title>nationwideCurrent&#45;&gt;lloydsCurrent</title>
<path fill="none" stroke="black" d="M836.82,-434.447C819.596,-476.526 791.09,-560.537 777.67,-608.366"/>
<polygon fill="black" stroke="black" points="774.221,-607.71 774.97,-618.279 780.975,-609.55 774.221,-607.71"/>
<text text-anchor="middle" x="793.245" y="-510.206" font-family="Times,serif" font-size="14.00">£500</text>
</g>
<!-- nationwideCurrent&#45;&gt;tsbCurrent -->
<g id="edge16" class="edge"><title>nationwideCurrent&#45;&gt;tsbCurrent</title>
<path fill="none" stroke="black" d="M844.845,-383.167C837.254,-346.434 823.296,-278.899 814.741,-237.508"/>
<polygon fill="black" stroke="black" points="818.142,-236.668 812.69,-227.583 811.287,-238.085 818.142,-236.668"/>
<text text-anchor="middle" x="815.793" y="-313.138" font-family="Times,serif" font-size="14.00">£500</text>
</g>
</g>
</svg>
