<?xml version="1.0" encoding="UTF-8" standalone="no"?>
<!DOCTYPE svg PUBLIC "-//W3C//DTD SVG 1.1//EN"
 "http://www.w3.org/Graphics/SVG/1.1/DTD/svg11.dtd">
<!-- Generated by graphviz version 2.38.0 (20140413.2041)
 -->
<!-- Title: bank&#45;flow Pages: 1 -->
<svg width="1259pt" height="585pt"
 viewBox="0.00 0.00 1259.45 584.81" xmlns="http://www.w3.org/2000/svg" xmlns:xlink="http://www.w3.org/1999/xlink">
<g id="graph0" class="graph" transform="scale(1 1) rotate(0) translate(4 580.807)">
<title>bank&#45;flow</title>
<polygon fill="white" stroke="none" points="-4,4 -4,-580.807 1255.45,-580.807 1255.45,4 -4,4"/>
<!-- wages -->
<g id="node1" class="node"><title>wages</title>
<ellipse fill="none" stroke="black" cx="36" cy="-426.683" rx="36" ry="18"/>
<text text-anchor="middle" x="36" y="-422.483" font-family="Times,serif" font-size="14.00">wages</text>
</g>
<!-- lloydsCurrent -->
<g id="node2" class="node"><title>lloydsCurrent</title>
<ellipse fill="none" stroke="black" cx="750.828" cy="-294.56" rx="66.0439" ry="25.4118"/>
<text text-anchor="middle" x="750.828" y="-297.36" font-family="Times,serif" font-size="14.00">lloyds current</text>
<text text-anchor="middle" x="750.828" y="-283.36" font-family="Times,serif" font-size="14.00">2%</text>
</g>
<!-- wages&#45;&gt;lloydsCurrent -->
<g id="edge3" class="edge"><title>wages&#45;&gt;lloydsCurrent</title>
<path fill="none" stroke="black" d="M69.9967,-420.4C180.454,-399.984 530.754,-335.237 681.14,-307.44"/>
<polygon fill="black" stroke="black" points="681.987,-310.843 691.184,-305.584 680.715,-303.96 681.987,-310.843"/>
<text text-anchor="middle" x="366.248" y="-366.72" font-family="Times,serif" font-size="14.00">???</text>
</g>
<!-- halifaxCurrent -->
<g id="node5" class="node"><title>halifaxCurrent</title>
<ellipse fill="none" stroke="black" cx="595.898" cy="-403.877" rx="69.1087" ry="25.4118"/>
<text text-anchor="middle" x="595.898" y="-406.677" font-family="Times,serif" font-size="14.00">halifax current</text>
<text text-anchor="middle" x="595.898" y="-392.677" font-family="Times,serif" font-size="14.00">£5pm</text>
</g>
<!-- lloydsCurrent&#45;&gt;halifaxCurrent -->
<g id="edge8" class="edge"><title>lloydsCurrent&#45;&gt;halifaxCurrent</title>
<path fill="none" stroke="black" d="M711.55,-315.175C686.037,-331.638 653.188,-354.805 629.001,-373.388"/>
<polygon fill="black" stroke="black" points="626.57,-370.845 620.833,-379.751 630.872,-376.367 626.57,-370.845"/>
<text text-anchor="middle" x="656.275" y="-347.081" font-family="Times,serif" font-size="14.00">£800</text>
</g>
<!-- halifaxIsa -->
<g id="node6" class="node"><title>halifaxIsa</title>
<ellipse fill="none" stroke="black" cx="401.472" cy="-169.869" rx="52.0409" ry="25.4118"/>
<text text-anchor="middle" x="401.472" y="-172.669" font-family="Times,serif" font-size="14.00">halifax isa</text>
<text text-anchor="middle" x="401.472" y="-158.669" font-family="Times,serif" font-size="14.00">3.5%</text>
</g>
<!-- lloydsCurrent&#45;&gt;halifaxIsa -->
<g id="edge14" class="edge"><title>lloydsCurrent&#45;&gt;halifaxIsa</title>
<path fill="none" stroke="black" d="M702.251,-277.222C636.758,-253.847 520.624,-212.396 453.436,-188.416"/>
<polygon fill="black" stroke="black" points="454.485,-185.074 443.89,-185.008 452.131,-191.666 454.485,-185.074"/>
<text text-anchor="middle" x="563.844" y="-235.619" font-family="Times,serif" font-size="14.00">£200</text>
</g>
<!-- netflix -->
<g id="node7" class="node"><title>netflix</title>
<ellipse fill="none" stroke="black" cx="519.256" cy="-67.5106" rx="32.9168" ry="18"/>
<text text-anchor="middle" x="519.256" y="-63.3106" font-family="Times,serif" font-size="14.00">netflix</text>
</g>
<!-- lloydsCurrent&#45;&gt;netflix -->
<g id="edge4" class="edge"><title>lloydsCurrent&#45;&gt;netflix</title>
<path fill="none" stroke="lightgreen" d="M726.483,-270.691C681.679,-226.761 586.72,-133.658 542.642,-90.4403"/>
<polygon fill="lightgreen" stroke="lightgreen" points="544.866,-87.7186 535.275,-83.2167 539.965,-92.7169 544.866,-87.7186"/>
<text text-anchor="middle" x="618.813" y="-183.366" font-family="Times,serif" font-size="14.00">£8.99</text>
</g>
<!-- giffGaff -->
<g id="node8" class="node"><title>giffGaff</title>
<ellipse fill="none" stroke="black" cx="653.416" cy="-18" rx="39.0243" ry="18"/>
<text text-anchor="middle" x="653.416" y="-13.8" font-family="Times,serif" font-size="14.00">giff gaff</text>
</g>
<!-- lloydsCurrent&#45;&gt;giffGaff -->
<g id="edge5" class="edge"><title>lloydsCurrent&#45;&gt;giffGaff</title>
<path fill="none" stroke="lightgreen" d="M741.838,-269.038C723.519,-217.029 682.008,-99.1753 663.111,-45.5244"/>
<polygon fill="lightgreen" stroke="lightgreen" points="666.375,-44.2552 659.751,-35.986 659.772,-46.5808 666.375,-44.2552"/>
<text text-anchor="middle" x="695.474" y="-160.081" font-family="Times,serif" font-size="14.00">£5</text>
</g>
<!-- mAndS -->
<g id="node9" class="node"><title>mAndS</title>
<ellipse fill="none" stroke="black" cx="860.145" cy="-449.49" rx="61.1445" ry="25.4118"/>
<text text-anchor="middle" x="860.145" y="-452.29" font-family="Times,serif" font-size="14.00">m&amp;s current</text>
<text text-anchor="middle" x="860.145" y="-438.29" font-family="Times,serif" font-size="14.00">£10pm</text>
</g>
<!-- lloydsCurrent&#45;&gt;mAndS -->
<g id="edge10" class="edge"><title>lloydsCurrent&#45;&gt;mAndS</title>
<path fill="none" stroke="black" d="M762.697,-319.929C778.974,-346.658 808.306,-388.709 830.621,-417.641"/>
<polygon fill="black" stroke="black" points="828.086,-420.08 837.005,-425.798 833.598,-415.766 828.086,-420.08"/>
<text text-anchor="middle" x="779.159" y="-371.585" font-family="Times,serif" font-size="14.00">£1000</text>
</g>
<!-- salvationArmy -->
<g id="node10" class="node"><title>salvationArmy</title>
<ellipse fill="none" stroke="black" cx="825.52" cy="-22.8491" rx="62.3326" ry="18"/>
<text text-anchor="middle" x="825.52" y="-18.6491" font-family="Times,serif" font-size="14.00">salvation army</text>
</g>
<!-- lloydsCurrent&#45;&gt;salvationArmy -->
<g id="edge6" class="edge"><title>lloydsCurrent&#45;&gt;salvationArmy</title>
<path fill="none" stroke="lightblue" d="M757.854,-268.998C771.881,-217.972 803.254,-103.847 817.818,-50.8661"/>
<polygon fill="lightblue" stroke="lightblue" points="821.221,-51.692 820.496,-41.1219 814.471,-49.8365 821.221,-51.692"/>
<text text-anchor="middle" x="780.836" y="-162.732" font-family="Times,serif" font-size="14.00">£2</text>
</g>
<!-- waterAid -->
<g id="node11" class="node"><title>waterAid</title>
<ellipse fill="none" stroke="black" cx="705.215" cy="-558.807" rx="42.5219" ry="18"/>
<text text-anchor="middle" x="705.215" y="-554.607" font-family="Times,serif" font-size="14.00">water aid</text>
</g>
<!-- lloydsCurrent&#45;&gt;waterAid -->
<g id="edge7" class="edge"><title>lloydsCurrent&#45;&gt;waterAid</title>
<path fill="none" stroke="lightblue" d="M746.371,-320.378C737.79,-370.087 719.037,-478.732 710.117,-530.408"/>
<polygon fill="lightblue" stroke="lightblue" points="706.622,-530.079 708.37,-540.528 713.52,-531.269 706.622,-530.079"/>
<text text-anchor="middle" x="721.244" y="-428.193" font-family="Times,serif" font-size="14.00">£2</text>
</g>
<!-- nationwideCurrent -->
<g id="node14" class="node"><title>nationwideCurrent</title>
<ellipse fill="none" stroke="black" cx="1165.65" cy="-329.258" rx="85.6133" ry="25.4118"/>
<text text-anchor="middle" x="1165.65" y="-332.058" font-family="Times,serif" font-size="14.00">nationwide current</text>
<text text-anchor="middle" x="1165.65" y="-318.058" font-family="Times,serif" font-size="14.00">5%</text>
</g>
<!-- lloydsCurrent&#45;&gt;nationwideCurrent -->
<g id="edge9" class="edge"><title>lloydsCurrent&#45;&gt;nationwideCurrent</title>
<path fill="none" stroke="black" d="M815.643,-299.982C884.555,-305.746 994.172,-314.915 1072.36,-321.455"/>
<polygon fill="black" stroke="black" points="1072.44,-324.974 1082.7,-322.32 1073.03,-317.998 1072.44,-324.974"/>
<text text-anchor="middle" x="926.504" y="-313.518" font-family="Times,serif" font-size="14.00">£1000</text>
</g>
<!-- tsbCurrent -->
<g id="node3" class="node"><title>tsbCurrent</title>
<ellipse fill="none" stroke="black" cx="1077.5" cy="-201.657" rx="53.2444" ry="25.4118"/>
<text text-anchor="middle" x="1077.5" y="-204.457" font-family="Times,serif" font-size="14.00">tsb current</text>
<text text-anchor="middle" x="1077.5" y="-190.457" font-family="Times,serif" font-size="14.00">3%</text>
</g>
<!-- tsbCurrent&#45;&gt;lloydsCurrent -->
<g id="edge16" class="edge"><title>tsbCurrent&#45;&gt;lloydsCurrent</title>
<path fill="none" stroke="black" d="M1031.39,-214.771C974.543,-230.937 877.664,-258.489 813.948,-276.609"/>
<polygon fill="black" stroke="black" points="812.679,-273.331 804.018,-279.433 814.594,-280.064 812.679,-273.331"/>
<text text-anchor="middle" x="908.667" y="-248.49" font-family="Times,serif" font-size="14.00">£200</text>
</g>
<!-- tsbSavings -->
<g id="node4" class="node"><title>tsbSavings</title>
<ellipse fill="none" stroke="black" cx="1005.29" cy="-97.134" rx="55.0794" ry="25.4118"/>
<text text-anchor="middle" x="1005.29" y="-99.934" font-family="Times,serif" font-size="14.00">tsb savings</text>
<text text-anchor="middle" x="1005.29" y="-85.934" font-family="Times,serif" font-size="14.00">5%</text>
</g>
<!-- tsbCurrent&#45;&gt;tsbSavings -->
<g id="edge15" class="edge"><title>tsbCurrent&#45;&gt;tsbSavings</title>
<path fill="none" stroke="black" d="M1060.75,-177.415C1050.98,-163.269 1038.52,-145.235 1027.89,-129.844"/>
<polygon fill="black" stroke="black" points="1030.76,-127.845 1022.2,-121.607 1025,-131.824 1030.76,-127.845"/>
<text text-anchor="middle" x="1030.32" y="-156.429" font-family="Times,serif" font-size="14.00">£250</text>
</g>
<!-- halifaxCurrent&#45;&gt;lloydsCurrent -->
<g id="edge13" class="edge"><title>halifaxCurrent&#45;&gt;lloydsCurrent</title>
<path fill="none" stroke="black" d="M635.578,-383.003C661.094,-366.516 693.822,-343.423 717.899,-324.915"/>
<polygon fill="black" stroke="black" points="720.293,-327.486 726.029,-318.578 715.99,-321.965 720.293,-327.486"/>
<text text-anchor="middle" x="690.738" y="-356.759" font-family="Times,serif" font-size="14.00">£800</text>
</g>
<!-- halifaxCurrent&#45;&gt;waterAid -->
<g id="edge17" class="edge"><title>halifaxCurrent&#45;&gt;waterAid</title>
<path fill="none" stroke="lightblue" d="M613.462,-428.769C633.59,-457.296 666.425,-503.832 686.874,-532.813"/>
<polygon fill="lightblue" stroke="lightblue" points="684.169,-535.051 692.795,-541.204 689.889,-531.015 684.169,-535.051"/>
<text text-anchor="middle" x="643.168" y="-483.591" font-family="Times,serif" font-size="14.00">£2</text>
</g>
<!-- amex -->
<g id="node12" class="node"><title>amex</title>
<ellipse fill="none" stroke="black" cx="476.269" cy="-383.227" rx="29.0172" ry="18"/>
<text text-anchor="middle" x="476.269" y="-379.027" font-family="Times,serif" font-size="14.00">amex</text>
</g>
<!-- halifaxCurrent&#45;&gt;amex -->
<g id="edge18" class="edge"><title>halifaxCurrent&#45;&gt;amex</title>
<path fill="none" stroke="lightblue" d="M532.931,-393.008C526.739,-391.939 520.592,-390.878 514.757,-389.871"/>
<polygon fill="lightblue" stroke="lightblue" points="515.098,-386.378 504.648,-388.126 513.907,-393.276 515.098,-386.378"/>
<text text-anchor="middle" x="496.825" y="-394.239" font-family="Times,serif" font-size="14.00">credit bill</text>
</g>
<!-- mAndS&#45;&gt;lloydsCurrent -->
<g id="edge11" class="edge"><title>mAndS&#45;&gt;lloydsCurrent</title>
<path fill="none" stroke="black" d="M848.486,-424.467C832.329,-397.883 803.042,-355.866 780.67,-326.823"/>
<polygon fill="black" stroke="black" points="783.182,-324.353 774.267,-318.628 777.666,-328.663 783.182,-324.353"/>
<text text-anchor="middle" x="832.078" y="-378.445" font-family="Times,serif" font-size="14.00">£1000</text>
</g>
<!-- mAndS&#45;&gt;waterAid -->
<g id="edge1" class="edge"><title>mAndS&#45;&gt;waterAid</title>
<path fill="none" stroke="lightblue" d="M828.792,-471.612C801.665,-490.752 762.677,-518.262 735.782,-537.239"/>
<polygon fill="lightblue" stroke="lightblue" points="733.658,-534.454 727.505,-543.079 737.694,-540.173 733.658,-534.454"/>
<text text-anchor="middle" x="775.287" y="-507.225" font-family="Times,serif" font-size="14.00">£2</text>
</g>
<!-- redCross -->
<g id="node13" class="node"><title>redCross</title>
<ellipse fill="none" stroke="black" cx="998.853" cy="-473.433" rx="41.5699" ry="18"/>
<text text-anchor="middle" x="998.853" y="-469.233" font-family="Times,serif" font-size="14.00">red cross</text>
</g>
<!-- mAndS&#45;&gt;redCross -->
<g id="edge2" class="edge"><title>mAndS&#45;&gt;redCross</title>
<path fill="none" stroke="lightblue" d="M916.963,-459.297C927.849,-461.176 939.161,-463.129 949.778,-464.962"/>
<polygon fill="lightblue" stroke="lightblue" points="949.258,-468.424 959.707,-466.676 950.449,-461.526 949.258,-468.424"/>
<text text-anchor="middle" x="940.37" y="-464.929" font-family="Times,serif" font-size="14.00">£2</text>
</g>
<!-- nationwideCurrent&#45;&gt;tsbCurrent -->
<g id="edge12" class="edge"><title>nationwideCurrent&#45;&gt;tsbCurrent</title>
<path fill="none" stroke="black" d="M1148.23,-304.048C1134.41,-284.043 1114.99,-255.93 1099.99,-234.221"/>
<polygon fill="black" stroke="black" points="1102.84,-232.187 1094.28,-225.949 1097.08,-236.166 1102.84,-232.187"/>
<text text-anchor="middle" x="1110.11" y="-271.935" font-family="Times,serif" font-size="14.00">£500</text>
</g>
</g>
</svg>
