<?xml version="1.0" encoding="UTF-8" standalone="no"?>
<!DOCTYPE svg PUBLIC "-//W3C//DTD SVG 1.1//EN"
 "http://www.w3.org/Graphics/SVG/1.1/DTD/svg11.dtd">
<!-- Generated by graphviz version 2.38.0 (20140413.2041)
 -->
<!-- Title: bank&#45;flow Pages: 1 -->
<svg width="1160pt" height="586pt"
 viewBox="0.00 0.00 1159.94 586.12" xmlns="http://www.w3.org/2000/svg" xmlns:xlink="http://www.w3.org/1999/xlink">
<g id="graph0" class="graph" transform="scale(1 1) rotate(0) translate(4 582.122)">
<title>bank&#45;flow</title>
<polygon fill="white" stroke="none" points="-4,4 -4,-582.122 1155.94,-582.122 1155.94,4 -4,4"/>
<!-- wages -->
<g id="node1" class="node"><title>wages</title>
<ellipse fill="none" stroke="black" cx="36" cy="-385.344" rx="36" ry="18"/>
<text text-anchor="middle" x="36" y="-381.144" font-family="Times,serif" font-size="14.00">wages</text>
</g>
<!-- lloydsCurrent -->
<g id="node2" class="node"><title>lloydsCurrent</title>
<ellipse fill="none" stroke="black" cx="603.002" cy="-298.258" rx="66.0439" ry="25.4118"/>
<text text-anchor="middle" x="603.002" y="-301.058" font-family="Times,serif" font-size="14.00">lloyds current</text>
<text text-anchor="middle" x="603.002" y="-287.058" font-family="Times,serif" font-size="14.00">4%</text>
</g>
<!-- wages&#45;&gt;lloydsCurrent -->
<g id="edge3" class="edge"><title>wages&#45;&gt;lloydsCurrent</title>
<path fill="none" stroke="black" d="M70.615,-380.028C161.471,-366.073 408.21,-328.177 531.246,-309.279"/>
<polygon fill="black" stroke="black" points="531.97,-312.709 541.323,-307.732 530.908,-305.79 531.97,-312.709"/>
<text text-anchor="middle" x="291.61" y="-347.454" font-family="Times,serif" font-size="14.00">???</text>
</g>
<!-- halifaxCurrent -->
<g id="node5" class="node"><title>halifaxCurrent</title>
<ellipse fill="none" stroke="black" cx="603.002" cy="-472.43" rx="69.1087" ry="25.4118"/>
<text text-anchor="middle" x="603.002" y="-475.23" font-family="Times,serif" font-size="14.00">halifax current</text>
<text text-anchor="middle" x="603.002" y="-461.23" font-family="Times,serif" font-size="14.00">£5pm</text>
</g>
<!-- lloydsCurrent&#45;&gt;halifaxCurrent -->
<g id="edge8" class="edge"><title>lloydsCurrent&#45;&gt;halifaxCurrent</title>
<path fill="none" stroke="black" d="M598.047,-323.958C595.884,-353.758 595.676,-403.069 597.424,-436.615"/>
<polygon fill="black" stroke="black" points="593.95,-437.144 598.06,-446.909 600.936,-436.712 593.95,-437.144"/>
<text text-anchor="middle" x="583.735" y="-383.087" font-family="Times,serif" font-size="14.00">£800</text>
</g>
<!-- halifaxIsa -->
<g id="node6" class="node"><title>halifaxIsa</title>
<ellipse fill="none" stroke="black" cx="315.501" cy="-462.7" rx="52.0409" ry="25.4118"/>
<text text-anchor="middle" x="315.501" y="-465.5" font-family="Times,serif" font-size="14.00">halifax isa</text>
<text text-anchor="middle" x="315.501" y="-451.5" font-family="Times,serif" font-size="14.00">3.5%</text>
</g>
<!-- lloydsCurrent&#45;&gt;halifaxIsa -->
<g id="edge12" class="edge"><title>lloydsCurrent&#45;&gt;halifaxIsa</title>
<path fill="none" stroke="black" d="M566.005,-319.42C512.851,-349.823 415.082,-405.743 358.689,-437.998"/>
<polygon fill="black" stroke="black" points="356.613,-435.153 349.671,-443.157 360.089,-441.23 356.613,-435.153"/>
<text text-anchor="middle" x="448.347" y="-381.509" font-family="Times,serif" font-size="14.00">£200</text>
</g>
<!-- netflix -->
<g id="node7" class="node"><title>netflix</title>
<ellipse fill="none" stroke="black" cx="315.715" cy="-307.061" rx="32.9168" ry="18"/>
<text text-anchor="middle" x="315.715" y="-302.861" font-family="Times,serif" font-size="14.00">netflix</text>
</g>
<!-- lloydsCurrent&#45;&gt;netflix -->
<g id="edge4" class="edge"><title>lloydsCurrent&#45;&gt;netflix</title>
<path fill="none" stroke="lightgreen" d="M537.093,-300.278C482.265,-301.958 405.816,-304.301 358.608,-305.747"/>
<polygon fill="lightgreen" stroke="lightgreen" points="358.309,-302.255 348.421,-306.059 358.524,-309.251 358.309,-302.255"/>
<text text-anchor="middle" x="432.101" y="-305.813" font-family="Times,serif" font-size="14.00">£8.99</text>
</g>
<!-- giffGaff -->
<g id="node8" class="node"><title>giffGaff</title>
<ellipse fill="none" stroke="black" cx="375.879" cy="-177.673" rx="39.0243" ry="18"/>
<text text-anchor="middle" x="375.879" y="-173.473" font-family="Times,serif" font-size="14.00">giff gaff</text>
</g>
<!-- lloydsCurrent&#45;&gt;giffGaff -->
<g id="edge5" class="edge"><title>lloydsCurrent&#45;&gt;giffGaff</title>
<path fill="none" stroke="lightgreen" d="M563.958,-277.529C520.802,-254.616 451.939,-218.055 410.598,-196.106"/>
<polygon fill="lightgreen" stroke="lightgreen" points="412.187,-192.987 401.714,-191.389 408.905,-199.17 412.187,-192.987"/>
<text text-anchor="middle" x="480.278" y="-239.618" font-family="Times,serif" font-size="14.00">£5</text>
</g>
<!-- salvationArmy -->
<g id="node10" class="node"><title>salvationArmy</title>
<ellipse fill="none" stroke="black" cx="509.552" cy="-70.0331" rx="62.3326" ry="18"/>
<text text-anchor="middle" x="509.552" y="-65.8331" font-family="Times,serif" font-size="14.00">salvation army</text>
</g>
<!-- lloydsCurrent&#45;&gt;salvationArmy -->
<g id="edge6" class="edge"><title>lloydsCurrent&#45;&gt;salvationArmy</title>
<path fill="none" stroke="lightblue" d="M592.644,-272.962C574.928,-229.696 538.958,-141.848 520.709,-97.2803"/>
<polygon fill="lightblue" stroke="lightblue" points="523.916,-95.877 516.888,-87.949 517.438,-98.5295 523.916,-95.877"/>
<text text-anchor="middle" x="549.677" y="-187.921" font-family="Times,serif" font-size="14.00">£2</text>
</g>
<!-- waterAid -->
<g id="node11" class="node"><title>waterAid</title>
<ellipse fill="none" stroke="black" cx="753.839" cy="-385.344" rx="42.5219" ry="18"/>
<text text-anchor="middle" x="753.839" y="-381.144" font-family="Times,serif" font-size="14.00">water aid</text>
</g>
<!-- lloydsCurrent&#45;&gt;waterAid -->
<g id="edge7" class="edge"><title>lloydsCurrent&#45;&gt;waterAid</title>
<path fill="none" stroke="lightblue" d="M639.901,-319.562C664.185,-333.582 695.752,-351.807 719.499,-365.518"/>
<polygon fill="lightblue" stroke="lightblue" points="717.776,-368.565 728.187,-370.533 721.276,-362.502 717.776,-368.565"/>
<text text-anchor="middle" x="672.7" y="-345.34" font-family="Times,serif" font-size="14.00">£2</text>
</g>
<!-- nationwideCurrent -->
<g id="node14" class="node"><title>nationwideCurrent</title>
<ellipse fill="none" stroke="black" cx="945.65" cy="-138.181" rx="76.8064" ry="18"/>
<text text-anchor="middle" x="945.65" y="-133.981" font-family="Times,serif" font-size="14.00">nationwide current</text>
</g>
<!-- lloydsCurrent&#45;&gt;nationwideCurrent -->
<g id="edge9" class="edge"><title>lloydsCurrent&#45;&gt;nationwideCurrent</title>
<path fill="none" stroke="black" d="M645.361,-278.469C710.724,-247.933 835.532,-189.626 901.791,-158.671"/>
<polygon fill="black" stroke="black" points="903.55,-161.712 911.128,-154.309 900.587,-155.37 903.55,-161.712"/>
<text text-anchor="middle" x="756.076" y="-221.37" font-family="Times,serif" font-size="14.00">£1000</text>
</g>
<!-- tsbCurrent -->
<g id="node3" class="node"><title>tsbCurrent</title>
<ellipse fill="none" stroke="black" cx="815.266" cy="-78.4019" rx="53.2444" ry="25.4118"/>
<text text-anchor="middle" x="815.266" y="-81.2019" font-family="Times,serif" font-size="14.00">tsb current</text>
<text text-anchor="middle" x="815.266" y="-67.2019" font-family="Times,serif" font-size="14.00">5%</text>
</g>
<!-- tsbCurrent&#45;&gt;lloydsCurrent -->
<g id="edge14" class="edge"><title>tsbCurrent&#45;&gt;lloydsCurrent</title>
<path fill="none" stroke="black" d="M792.55,-101.93C754.132,-141.723 676.319,-222.319 633.301,-266.876"/>
<polygon fill="black" stroke="black" points="630.626,-264.607 626.198,-274.233 635.662,-269.469 630.626,-264.607"/>
<text text-anchor="middle" x="698.925" y="-187.203" font-family="Times,serif" font-size="14.00">£200</text>
</g>
<!-- tsbSavings -->
<g id="node4" class="node"><title>tsbSavings</title>
<ellipse fill="none" stroke="black" cx="699.785" cy="-25.4558" rx="55.0794" ry="25.4118"/>
<text text-anchor="middle" x="699.785" y="-28.2558" font-family="Times,serif" font-size="14.00">tsb savings</text>
<text text-anchor="middle" x="699.785" y="-14.2558" font-family="Times,serif" font-size="14.00">5%</text>
</g>
<!-- tsbCurrent&#45;&gt;tsbSavings -->
<g id="edge13" class="edge"><title>tsbCurrent&#45;&gt;tsbSavings</title>
<path fill="none" stroke="black" d="M776.491,-60.6244C767.449,-56.4786 757.709,-52.0128 748.303,-47.7006"/>
<polygon fill="black" stroke="black" points="749.597,-44.4433 739.048,-43.4572 746.68,-50.8064 749.597,-44.4433"/>
<text text-anchor="middle" x="748.397" y="-56.9625" font-family="Times,serif" font-size="14.00">£250</text>
</g>
<!-- halifaxCurrent&#45;&gt;lloydsCurrent -->
<g id="edge11" class="edge"><title>halifaxCurrent&#45;&gt;lloydsCurrent</title>
<path fill="none" stroke="black" d="M607.958,-446.73C610.121,-416.931 610.329,-367.62 608.581,-334.073"/>
<polygon fill="black" stroke="black" points="612.055,-333.545 607.945,-323.78 605.068,-333.977 612.055,-333.545"/>
<text text-anchor="middle" x="622.269" y="-393.202" font-family="Times,serif" font-size="14.00">£800</text>
</g>
<!-- halifaxCurrent&#45;&gt;waterAid -->
<g id="edge15" class="edge"><title>halifaxCurrent&#45;&gt;waterAid</title>
<path fill="none" stroke="lightblue" d="M640.288,-450.903C664.471,-436.941 695.753,-418.88 719.359,-405.252"/>
<polygon fill="lightblue" stroke="lightblue" points="721.408,-408.11 728.319,-400.079 717.908,-402.048 721.408,-408.11"/>
<text text-anchor="middle" x="672.823" y="-430.877" font-family="Times,serif" font-size="14.00">£2</text>
</g>
<!-- amex -->
<g id="node12" class="node"><title>amex</title>
<ellipse fill="none" stroke="black" cx="552.374" cy="-560.122" rx="29.0172" ry="18"/>
<text text-anchor="middle" x="552.374" y="-555.922" font-family="Times,serif" font-size="14.00">amex</text>
</g>
<!-- halifaxCurrent&#45;&gt;amex -->
<g id="edge16" class="edge"><title>halifaxCurrent&#45;&gt;amex</title>
<path fill="none" stroke="lightblue" d="M588.358,-497.794C581.722,-509.289 573.887,-522.859 567.226,-534.397"/>
<polygon fill="lightblue" stroke="lightblue" points="564.149,-532.725 562.18,-543.136 570.211,-536.226 564.149,-532.725"/>
<text text-anchor="middle" x="550.773" y="-518.895" font-family="Times,serif" font-size="14.00">credit bill</text>
</g>
<!-- santander -->
<g id="node9" class="node"><title>santander</title>
<ellipse fill="none" stroke="black" cx="916.624" cy="-385.344" rx="80.0003" ry="25.4118"/>
<text text-anchor="middle" x="916.624" y="-388.144" font-family="Times,serif" font-size="14.00">santander current</text>
<text text-anchor="middle" x="916.624" y="-374.144" font-family="Times,serif" font-size="14.00">3%</text>
</g>
<!-- santander&#45;&gt;waterAid -->
<g id="edge1" class="edge"><title>santander&#45;&gt;waterAid</title>
<path fill="none" stroke="lightblue" d="M836.662,-385.344C826.506,-385.344 816.32,-385.344 806.738,-385.344"/>
<polygon fill="lightblue" stroke="lightblue" points="806.606,-381.844 796.606,-385.344 806.606,-388.844 806.606,-381.844"/>
<text text-anchor="middle" x="814.7" y="-388.144" font-family="Times,serif" font-size="14.00">£2</text>
</g>
<!-- redCross -->
<g id="node13" class="node"><title>redCross</title>
<ellipse fill="none" stroke="black" cx="1110.16" cy="-385.344" rx="41.5699" ry="18"/>
<text text-anchor="middle" x="1110.16" y="-381.144" font-family="Times,serif" font-size="14.00">red cross</text>
</g>
<!-- santander&#45;&gt;redCross -->
<g id="edge2" class="edge"><title>santander&#45;&gt;redCross</title>
<path fill="none" stroke="lightblue" d="M996.459,-385.344C1017.28,-385.344 1039.18,-385.344 1058.14,-385.344"/>
<polygon fill="lightblue" stroke="lightblue" points="1058.35,-388.844 1068.35,-385.344 1058.35,-381.844 1058.35,-388.844"/>
<text text-anchor="middle" x="1020.3" y="-388.144" font-family="Times,serif" font-size="14.00">£2</text>
</g>
<!-- nationwideCurrent&#45;&gt;tsbCurrent -->
<g id="edge10" class="edge"><title>nationwideCurrent&#45;&gt;tsbCurrent</title>
<path fill="none" stroke="black" d="M910.366,-122.004C895.877,-115.361 878.87,-107.563 863.277,-100.414"/>
<polygon fill="black" stroke="black" points="864.334,-97.0483 853.785,-96.0621 861.416,-103.411 864.334,-97.0483"/>
<text text-anchor="middle" x="900.821" y="-100.009" font-family="Times,serif" font-size="14.00">£500</text>
</g>
</g>
</svg>
