<?xml version="1.0" encoding="UTF-8" standalone="no"?>
<!DOCTYPE svg PUBLIC "-//W3C//DTD SVG 1.1//EN"
 "http://www.w3.org/Graphics/SVG/1.1/DTD/svg11.dtd">
<!-- Generated by graphviz version 2.38.0 (20140413.2041)
 -->
<!-- Title: bank&#45;flow Pages: 1 -->
<svg width="1568pt" height="662pt"
 viewBox="0.00 0.00 1567.85 661.89" xmlns="http://www.w3.org/2000/svg" xmlns:xlink="http://www.w3.org/1999/xlink">
<g id="graph0" class="graph" transform="scale(1 1) rotate(0) translate(4 657.885)">
<title>bank&#45;flow</title>
<polygon fill="white" stroke="none" points="-4,4 -4,-657.885 1563.85,-657.885 1563.85,4 -4,4"/>
<!-- wages -->
<g id="node1" class="node"><title>wages</title>
<ellipse fill="none" stroke="black" cx="36" cy="-509.45" rx="36" ry="18"/>
<text text-anchor="middle" x="36" y="-505.25" font-family="Times,serif" font-size="14.00">wages</text>
</g>
<!-- lloydsCurrent -->
<g id="node2" class="node"><title>lloydsCurrent</title>
<ellipse fill="none" stroke="black" cx="951.936" cy="-383.015" rx="66.0439" ry="25.4118"/>
<text text-anchor="middle" x="951.936" y="-385.815" font-family="Times,serif" font-size="14.00">lloyds current</text>
<text text-anchor="middle" x="951.936" y="-371.815" font-family="Times,serif" font-size="14.00">2%</text>
</g>
<!-- wages&#45;&gt;lloydsCurrent -->
<g id="edge3" class="edge"><title>wages&#45;&gt;lloydsCurrent</title>
<path fill="none" stroke="black" d="M70.7873,-504.648C205.391,-486.067 693.753,-418.654 879.527,-393.01"/>
<polygon fill="black" stroke="black" points="880.043,-396.472 889.47,-391.637 879.085,-389.538 880.043,-396.472"/>
<text text-anchor="middle" x="465.837" y="-451.629" font-family="Times,serif" font-size="14.00">???</text>
</g>
<!-- halifaxCurrent -->
<g id="node5" class="node"><title>halifaxCurrent</title>
<ellipse fill="none" stroke="black" cx="780.882" cy="-464.831" rx="69.1087" ry="25.4118"/>
<text text-anchor="middle" x="780.882" y="-467.631" font-family="Times,serif" font-size="14.00">halifax current</text>
<text text-anchor="middle" x="780.882" y="-453.631" font-family="Times,serif" font-size="14.00">£5pm</text>
</g>
<!-- lloydsCurrent&#45;&gt;halifaxCurrent -->
<g id="edge8" class="edge"><title>lloydsCurrent&#45;&gt;halifaxCurrent</title>
<path fill="none" stroke="black" d="M902.107,-400.078C877.284,-410.979 847.582,-425.208 823.783,-437.61"/>
<polygon fill="black" stroke="black" points="821.849,-434.673 814.643,-442.44 825.12,-440.862 821.849,-434.673"/>
<text text-anchor="middle" x="848.945" y="-421.644" font-family="Times,serif" font-size="14.00">£800</text>
</g>
<!-- halifaxIsa -->
<g id="node6" class="node"><title>halifaxIsa</title>
<ellipse fill="none" stroke="black" cx="566.369" cy="-147.701" rx="52.0409" ry="25.4118"/>
<text text-anchor="middle" x="566.369" y="-150.501" font-family="Times,serif" font-size="14.00">halifax isa</text>
<text text-anchor="middle" x="566.369" y="-136.501" font-family="Times,serif" font-size="14.00">3.5%</text>
</g>
<!-- lloydsCurrent&#45;&gt;halifaxIsa -->
<g id="edge14" class="edge"><title>lloydsCurrent&#45;&gt;halifaxIsa</title>
<path fill="none" stroke="black" d="M916.354,-361.299C844.876,-317.675 684.185,-219.605 607.981,-173.097"/>
<polygon fill="black" stroke="black" points="609.477,-169.91 599.118,-167.688 605.83,-175.885 609.477,-169.91"/>
<text text-anchor="middle" x="748.167" y="-269.998" font-family="Times,serif" font-size="14.00">£200</text>
</g>
<!-- netflix -->
<g id="node7" class="node"><title>netflix</title>
<ellipse fill="none" stroke="black" cx="695.575" cy="-59.7026" rx="32.9168" ry="18"/>
<text text-anchor="middle" x="695.575" y="-55.5026" font-family="Times,serif" font-size="14.00">netflix</text>
</g>
<!-- lloydsCurrent&#45;&gt;netflix -->
<g id="edge4" class="edge"><title>lloydsCurrent&#45;&gt;netflix</title>
<path fill="none" stroke="lightgreen" d="M932.457,-358.448C884.805,-298.351 762.776,-144.454 715.088,-84.3118"/>
<polygon fill="lightgreen" stroke="lightgreen" points="717.824,-82.1284 708.868,-76.4673 712.339,-86.4776 717.824,-82.1284"/>
<text text-anchor="middle" x="808.023" y="-224.18" font-family="Times,serif" font-size="14.00">£8.99</text>
</g>
<!-- giffGaff -->
<g id="node8" class="node"><title>giffGaff</title>
<ellipse fill="none" stroke="black" cx="832.589" cy="-18" rx="39.0243" ry="18"/>
<text text-anchor="middle" x="832.589" y="-13.8" font-family="Times,serif" font-size="14.00">giff gaff</text>
</g>
<!-- lloydsCurrent&#45;&gt;giffGaff -->
<g id="edge5" class="edge"><title>lloydsCurrent&#45;&gt;giffGaff</title>
<path fill="none" stroke="lightgreen" d="M943.639,-357.637C922.018,-291.512 864.075,-114.298 841.638,-45.675"/>
<polygon fill="lightgreen" stroke="lightgreen" points="844.907,-44.4122 838.473,-35.9951 838.254,-46.5877 844.907,-44.4122"/>
<text text-anchor="middle" x="885.638" y="-204.456" font-family="Times,serif" font-size="14.00">£5</text>
</g>
<!-- mAndS -->
<g id="node9" class="node"><title>mAndS</title>
<ellipse fill="none" stroke="black" cx="1033.75" cy="-554.069" rx="61.1445" ry="25.4118"/>
<text text-anchor="middle" x="1033.75" y="-556.869" font-family="Times,serif" font-size="14.00">m&amp;s current</text>
<text text-anchor="middle" x="1033.75" y="-542.869" font-family="Times,serif" font-size="14.00">£10pm</text>
</g>
<!-- lloydsCurrent&#45;&gt;mAndS -->
<g id="edge10" class="edge"><title>lloydsCurrent&#45;&gt;mAndS</title>
<path fill="none" stroke="black" d="M958.795,-408.519C970.542,-438.356 993.89,-487.785 1011.55,-520.656"/>
<polygon fill="black" stroke="black" points="1008.49,-522.365 1016.36,-529.459 1014.63,-519.006 1008.49,-522.365"/>
<text text-anchor="middle" x="967.672" y="-467.388" font-family="Times,serif" font-size="14.00">£1000</text>
</g>
<!-- salvationArmy -->
<g id="node10" class="node"><title>salvationArmy</title>
<ellipse fill="none" stroke="black" cx="1005.09" cy="-22.0616" rx="62.3326" ry="18"/>
<text text-anchor="middle" x="1005.09" y="-17.8616" font-family="Times,serif" font-size="14.00">salvation army</text>
</g>
<!-- lloydsCurrent&#45;&gt;salvationArmy -->
<g id="edge6" class="edge"><title>lloydsCurrent&#45;&gt;salvationArmy</title>
<path fill="none" stroke="lightblue" d="M955.716,-357.345C965.375,-291.759 990.903,-118.41 1000.95,-50.2023"/>
<polygon fill="lightblue" stroke="lightblue" points="1004.43,-50.594 1002.42,-40.1907 997.502,-49.5741 1004.43,-50.594"/>
<text text-anchor="middle" x="971.332" y="-206.574" font-family="Times,serif" font-size="14.00">£2</text>
</g>
<!-- waterAid -->
<g id="node11" class="node"><title>waterAid</title>
<ellipse fill="none" stroke="black" cx="862.698" cy="-635.885" rx="42.5219" ry="18"/>
<text text-anchor="middle" x="862.698" y="-631.685" font-family="Times,serif" font-size="14.00">water aid</text>
</g>
<!-- lloydsCurrent&#45;&gt;waterAid -->
<g id="edge7" class="edge"><title>lloydsCurrent&#45;&gt;waterAid</title>
<path fill="none" stroke="lightblue" d="M942.888,-408.653C926.01,-456.48 889.862,-558.911 872.458,-608.229"/>
<polygon fill="lightblue" stroke="lightblue" points="869.069,-607.313 869.042,-617.908 875.67,-609.643 869.069,-607.313"/>
<text text-anchor="middle" x="900.673" y="-511.241" font-family="Times,serif" font-size="14.00">£2</text>
</g>
<!-- nationwideCurrent -->
<g id="node14" class="node"><title>nationwideCurrent</title>
<ellipse fill="none" stroke="black" cx="1174.47" cy="-339.391" rx="85.6133" ry="25.4118"/>
<text text-anchor="middle" x="1174.47" y="-342.191" font-family="Times,serif" font-size="14.00">nationwide current</text>
<text text-anchor="middle" x="1174.47" y="-328.191" font-family="Times,serif" font-size="14.00">5%</text>
</g>
<!-- lloydsCurrent&#45;&gt;nationwideCurrent -->
<g id="edge9" class="edge"><title>lloydsCurrent&#45;&gt;nationwideCurrent</title>
<path fill="none" stroke="black" d="M1010.99,-371.439C1036.1,-366.516 1065.81,-360.692 1092.96,-355.369"/>
<polygon fill="black" stroke="black" points="1093.7,-358.792 1102.84,-353.434 1092.35,-351.923 1093.7,-358.792"/>
<text text-anchor="middle" x="1069.47" y="-366.204" font-family="Times,serif" font-size="14.00">£1000</text>
</g>
<!-- tsbCurrent -->
<g id="node3" class="node"><title>tsbCurrent</title>
<ellipse fill="none" stroke="black" cx="1352.62" cy="-225.989" rx="53.2444" ry="25.4118"/>
<text text-anchor="middle" x="1352.62" y="-228.789" font-family="Times,serif" font-size="14.00">tsb current</text>
<text text-anchor="middle" x="1352.62" y="-214.789" font-family="Times,serif" font-size="14.00">3%</text>
</g>
<!-- tsbSavings -->
<g id="node4" class="node"><title>tsbSavings</title>
<ellipse fill="none" stroke="black" cx="1504.81" cy="-129.109" rx="55.0794" ry="25.4118"/>
<text text-anchor="middle" x="1504.81" y="-131.909" font-family="Times,serif" font-size="14.00">tsb savings</text>
<text text-anchor="middle" x="1504.81" y="-117.909" font-family="Times,serif" font-size="14.00">5%</text>
</g>
<!-- tsbCurrent&#45;&gt;tsbSavings -->
<g id="edge15" class="edge"><title>tsbCurrent&#45;&gt;tsbSavings</title>
<path fill="none" stroke="black" d="M1384.89,-205.443C1407.92,-190.786 1439.06,-170.96 1463.84,-155.187"/>
<polygon fill="black" stroke="black" points="1465.76,-158.115 1472.32,-149.792 1462,-152.21 1465.76,-158.115"/>
<text text-anchor="middle" x="1410.37" y="-183.115" font-family="Times,serif" font-size="14.00">£250</text>
</g>
<!-- halifaxCurrent&#45;&gt;lloydsCurrent -->
<g id="edge13" class="edge"><title>halifaxCurrent&#45;&gt;lloydsCurrent</title>
<path fill="none" stroke="black" d="M831.634,-447.361C856.516,-436.406 886.12,-422.201 909.743,-409.866"/>
<polygon fill="black" stroke="black" points="911.61,-412.838 918.809,-405.065 908.334,-406.652 911.61,-412.838"/>
<text text-anchor="middle" x="884.689" y="-431.414" font-family="Times,serif" font-size="14.00">£800</text>
</g>
<!-- halifaxCurrent&#45;&gt;waterAid -->
<g id="edge16" class="edge"><title>halifaxCurrent&#45;&gt;waterAid</title>
<path fill="none" stroke="lightblue" d="M792.954,-490.07C808.1,-521.737 833.978,-575.839 849.593,-608.487"/>
<polygon fill="lightblue" stroke="lightblue" points="846.615,-610.371 854.087,-617.882 852.93,-607.351 846.615,-610.371"/>
<text text-anchor="middle" x="814.274" y="-552.079" font-family="Times,serif" font-size="14.00">£2</text>
</g>
<!-- amex -->
<g id="node12" class="node"><title>amex</title>
<ellipse fill="none" stroke="black" cx="678.901" cy="-428.842" rx="29.0172" ry="18"/>
<text text-anchor="middle" x="678.901" y="-424.642" font-family="Times,serif" font-size="14.00">amex</text>
</g>
<!-- halifaxCurrent&#45;&gt;amex -->
<g id="edge17" class="edge"><title>halifaxCurrent&#45;&gt;amex</title>
<path fill="none" stroke="lightblue" d="M730.788,-447.152C725.058,-445.13 719.313,-443.103 713.843,-441.172"/>
<polygon fill="lightblue" stroke="lightblue" points="714.95,-437.852 704.355,-437.824 712.62,-444.453 714.95,-437.852"/>
<text text-anchor="middle" x="695.296" y="-446.962" font-family="Times,serif" font-size="14.00">credit bill</text>
</g>
<!-- mAndS&#45;&gt;lloydsCurrent -->
<g id="edge11" class="edge"><title>mAndS&#45;&gt;lloydsCurrent</title>
<path fill="none" stroke="black" d="M1026.89,-528.565C1015.15,-498.728 991.798,-449.299 974.14,-416.428"/>
<polygon fill="black" stroke="black" points="977.195,-414.719 969.325,-407.625 971.053,-418.078 977.195,-414.719"/>
<text text-anchor="middle" x="1018.02" y="-475.296" font-family="Times,serif" font-size="14.00">£1000</text>
</g>
<!-- mAndS&#45;&gt;waterAid -->
<g id="edge1" class="edge"><title>mAndS&#45;&gt;waterAid</title>
<path fill="none" stroke="lightblue" d="M993.215,-573.458C965.111,-586.9 927.948,-604.676 900.467,-617.82"/>
<polygon fill="lightblue" stroke="lightblue" points="898.692,-614.789 891.181,-622.261 901.712,-621.104 898.692,-614.789"/>
<text text-anchor="middle" x="939.841" y="-598.439" font-family="Times,serif" font-size="14.00">£2</text>
</g>
<!-- redCross -->
<g id="node13" class="node"><title>redCross</title>
<ellipse fill="none" stroke="black" cx="1153.33" cy="-596.267" rx="41.5699" ry="18"/>
<text text-anchor="middle" x="1153.33" y="-592.067" font-family="Times,serif" font-size="14.00">red cross</text>
</g>
<!-- mAndS&#45;&gt;redCross -->
<g id="edge2" class="edge"><title>mAndS&#45;&gt;redCross</title>
<path fill="none" stroke="lightblue" d="M1080.67,-570.626C1090.78,-574.193 1101.4,-577.942 1111.31,-581.439"/>
<polygon fill="lightblue" stroke="lightblue" points="1110.34,-584.808 1120.93,-584.835 1112.67,-578.206 1110.34,-584.808"/>
<text text-anchor="middle" x="1102.99" y="-578.832" font-family="Times,serif" font-size="14.00">£2</text>
</g>
<!-- nationwideCurrent&#45;&gt;tsbCurrent -->
<g id="edge12" class="edge"><title>nationwideCurrent&#45;&gt;tsbCurrent</title>
<path fill="none" stroke="black" d="M1210.95,-316.169C1240.23,-297.532 1281.32,-271.377 1311.71,-252.031"/>
<polygon fill="black" stroke="black" points="1313.82,-254.838 1320.37,-246.515 1310.06,-248.933 1313.82,-254.838"/>
<text text-anchor="middle" x="1247.33" y="-286.9" font-family="Times,serif" font-size="14.00">£500</text>
</g>
</g>
</svg>
