<?xml version="1.0" encoding="UTF-8" standalone="no"?>
<!DOCTYPE svg PUBLIC "-//W3C//DTD SVG 1.1//EN"
 "http://www.w3.org/Graphics/SVG/1.1/DTD/svg11.dtd">
<!-- Generated by graphviz version 2.38.0 (20140413.2041)
 -->
<!-- Title: bank&#45;flow Pages: 1 -->
<svg width="1055pt" height="448pt"
 viewBox="0.00 0.00 1054.96 447.65" xmlns="http://www.w3.org/2000/svg" xmlns:xlink="http://www.w3.org/1999/xlink">
<g id="graph0" class="graph" transform="scale(1 1) rotate(0) translate(4 443.647)">
<title>bank&#45;flow</title>
<polygon fill="white" stroke="none" points="-4,4 -4,-443.647 1050.96,-443.647 1050.96,4 -4,4"/>
<!-- wages -->
<g id="node1" class="node"><title>wages</title>
<ellipse fill="none" stroke="black" cx="402.304" cy="-421.647" rx="36" ry="18"/>
<text text-anchor="middle" x="402.304" y="-417.447" font-family="Times,serif" font-size="14.00">wages</text>
</g>
<!-- lloydsCurrent -->
<g id="node2" class="node"><title>lloydsCurrent</title>
<ellipse fill="none" stroke="black" cx="402.304" cy="-328.191" rx="66.0439" ry="25.4118"/>
<text text-anchor="middle" x="402.304" y="-330.991" font-family="Times,serif" font-size="14.00">lloyds current</text>
<text text-anchor="middle" x="402.304" y="-316.991" font-family="Times,serif" font-size="14.00">4%</text>
</g>
<!-- wages&#45;&gt;lloydsCurrent -->
<g id="edge3" class="edge"><title>wages&#45;&gt;lloydsCurrent</title>
<path fill="none" stroke="black" d="M402.304,-403.445C402.304,-392.421 402.304,-377.715 402.304,-364.299"/>
<polygon fill="black" stroke="black" points="405.804,-363.912 402.304,-353.912 398.804,-363.912 405.804,-363.912"/>
<text text-anchor="middle" x="411.625" y="-374.447" font-family="Times,serif" font-size="14.00">???</text>
</g>
<!-- halifaxCurrent -->
<g id="node5" class="node"><title>halifaxCurrent</title>
<ellipse fill="none" stroke="black" cx="69.3041" cy="-227.279" rx="69.1087" ry="25.4118"/>
<text text-anchor="middle" x="69.3041" y="-230.079" font-family="Times,serif" font-size="14.00">halifax current</text>
<text text-anchor="middle" x="69.3041" y="-216.079" font-family="Times,serif" font-size="14.00">£5pm</text>
</g>
<!-- lloydsCurrent&#45;&gt;halifaxCurrent -->
<g id="edge8" class="edge"><title>lloydsCurrent&#45;&gt;halifaxCurrent</title>
<path fill="none" stroke="black" d="M350.67,-312.302C299.301,-297.432 218.262,-273.816 148.304,-252.735 142.668,-251.037 136.811,-249.255 130.948,-247.46"/>
<polygon fill="black" stroke="black" points="131.701,-244.03 121.114,-244.44 129.645,-250.722 131.701,-244.03"/>
<text text-anchor="middle" x="267.304" y="-273.535" font-family="Times,serif" font-size="14.00">£800</text>
</g>
<!-- halifaxIsa -->
<g id="node6" class="node"><title>halifaxIsa</title>
<ellipse fill="none" stroke="black" cx="209.304" cy="-227.279" rx="52.0409" ry="25.4118"/>
<text text-anchor="middle" x="209.304" y="-230.079" font-family="Times,serif" font-size="14.00">halifax isa</text>
<text text-anchor="middle" x="209.304" y="-216.079" font-family="Times,serif" font-size="14.00">3.5%</text>
</g>
<!-- lloydsCurrent&#45;&gt;halifaxIsa -->
<g id="edge12" class="edge"><title>lloydsCurrent&#45;&gt;halifaxIsa</title>
<path fill="none" stroke="black" d="M363.711,-307.412C331.937,-291.128 286.872,-268.032 253.624,-250.993"/>
<polygon fill="black" stroke="black" points="255.076,-247.804 244.58,-246.358 251.883,-254.034 255.076,-247.804"/>
<text text-anchor="middle" x="332.304" y="-273.535" font-family="Times,serif" font-size="14.00">£200</text>
</g>
<!-- netflix -->
<g id="node7" class="node"><title>netflix</title>
<ellipse fill="none" stroke="black" cx="312.304" cy="-227.279" rx="32.9168" ry="18"/>
<text text-anchor="middle" x="312.304" y="-223.079" font-family="Times,serif" font-size="14.00">netflix</text>
</g>
<!-- lloydsCurrent&#45;&gt;netflix -->
<g id="edge4" class="edge"><title>lloydsCurrent&#45;&gt;netflix</title>
<path fill="none" stroke="lightgreen" d="M381.203,-304.001C366.78,-288.149 347.742,-267.226 333.334,-251.391"/>
<polygon fill="lightgreen" stroke="lightgreen" points="335.589,-248.669 326.27,-243.628 330.411,-253.38 335.589,-248.669"/>
<text text-anchor="middle" x="379.054" y="-273.535" font-family="Times,serif" font-size="14.00">£7.49</text>
</g>
<!-- giffGaff -->
<g id="node8" class="node"><title>giffGaff</title>
<ellipse fill="none" stroke="black" cx="402.304" cy="-227.279" rx="39.0243" ry="18"/>
<text text-anchor="middle" x="402.304" y="-223.079" font-family="Times,serif" font-size="14.00">giff gaff</text>
</g>
<!-- lloydsCurrent&#45;&gt;giffGaff -->
<g id="edge5" class="edge"><title>lloydsCurrent&#45;&gt;giffGaff</title>
<path fill="none" stroke="lightgreen" d="M402.304,-302.486C402.304,-288.213 402.304,-270.233 402.304,-255.546"/>
<polygon fill="lightgreen" stroke="lightgreen" points="405.804,-255.534 402.304,-245.534 398.804,-255.534 405.804,-255.534"/>
<text text-anchor="middle" x="409.304" y="-273.535" font-family="Times,serif" font-size="14.00">£5</text>
</g>
<!-- salvationArmy -->
<g id="node10" class="node"><title>salvationArmy</title>
<ellipse fill="none" stroke="black" cx="521.304" cy="-227.279" rx="62.3326" ry="18"/>
<text text-anchor="middle" x="521.304" y="-223.079" font-family="Times,serif" font-size="14.00">salvation army</text>
</g>
<!-- lloydsCurrent&#45;&gt;salvationArmy -->
<g id="edge6" class="edge"><title>lloydsCurrent&#45;&gt;salvationArmy</title>
<path fill="none" stroke="lightblue" d="M429.307,-304.746C448.628,-288.687 474.543,-267.146 493.944,-251.02"/>
<polygon fill="lightblue" stroke="lightblue" points="496.369,-253.556 501.822,-244.472 491.895,-248.173 496.369,-253.556"/>
<text text-anchor="middle" x="476.304" y="-273.535" font-family="Times,serif" font-size="14.00">£2</text>
</g>
<!-- waterAid -->
<g id="node11" class="node"><title>waterAid</title>
<ellipse fill="none" stroke="black" cx="619.304" cy="-126.368" rx="42.5219" ry="18"/>
<text text-anchor="middle" x="619.304" y="-122.168" font-family="Times,serif" font-size="14.00">water aid</text>
</g>
<!-- lloydsCurrent&#45;&gt;waterAid -->
<g id="edge7" class="edge"><title>lloydsCurrent&#45;&gt;waterAid</title>
<path fill="none" stroke="lightblue" d="M463.74,-318.555C505.976,-309.379 560.057,-290.655 592.304,-252.735 615.606,-225.334 620.25,-182.589 620.505,-154.779"/>
<polygon fill="lightblue" stroke="lightblue" points="624.003,-154.531 620.408,-144.565 617.004,-154.597 624.003,-154.531"/>
<text text-anchor="middle" x="623.304" y="-223.079" font-family="Times,serif" font-size="14.00">£2</text>
</g>
<!-- nationwideCurrent -->
<g id="node14" class="node"><title>nationwideCurrent</title>
<ellipse fill="none" stroke="black" cx="970.304" cy="-227.279" rx="76.8064" ry="18"/>
<text text-anchor="middle" x="970.304" y="-223.079" font-family="Times,serif" font-size="14.00">nationwide current</text>
</g>
<!-- lloydsCurrent&#45;&gt;nationwideCurrent -->
<g id="edge9" class="edge"><title>lloydsCurrent&#45;&gt;nationwideCurrent</title>
<path fill="none" stroke="black" d="M467.843,-324.23C576.547,-318.801 789.306,-305.834 861.304,-284.735 888.205,-276.852 916.238,-262.165 937.138,-249.748"/>
<polygon fill="black" stroke="black" points="939.19,-252.596 945.921,-244.413 935.557,-246.613 939.19,-252.596"/>
<text text-anchor="middle" x="915.804" y="-273.535" font-family="Times,serif" font-size="14.00">£1000</text>
</g>
<!-- tsbCurrent -->
<g id="node3" class="node"><title>tsbCurrent</title>
<ellipse fill="none" stroke="black" cx="886.304" cy="-126.368" rx="53.2444" ry="25.4118"/>
<text text-anchor="middle" x="886.304" y="-129.168" font-family="Times,serif" font-size="14.00">tsb current</text>
<text text-anchor="middle" x="886.304" y="-115.168" font-family="Times,serif" font-size="14.00">5%</text>
</g>
<!-- tsbCurrent&#45;&gt;lloydsCurrent -->
<g id="edge14" class="edge"><title>tsbCurrent&#45;&gt;lloydsCurrent</title>
<path fill="none" stroke="black" d="M876.578,-151.593C862.982,-184.252 837.977,-239.816 820.304,-252.735 766.818,-291.835 582.337,-312.736 477.204,-321.717"/>
<polygon fill="black" stroke="black" points="476.646,-318.251 466.973,-322.575 477.231,-325.227 476.646,-318.251"/>
<text text-anchor="middle" x="868.304" y="-223.079" font-family="Times,serif" font-size="14.00">£200</text>
</g>
<!-- tsbSavings -->
<g id="node4" class="node"><title>tsbSavings</title>
<ellipse fill="none" stroke="black" cx="886.304" cy="-25.4558" rx="55.0794" ry="25.4118"/>
<text text-anchor="middle" x="886.304" y="-28.2558" font-family="Times,serif" font-size="14.00">tsb savings</text>
<text text-anchor="middle" x="886.304" y="-14.2558" font-family="Times,serif" font-size="14.00">5%</text>
</g>
<!-- tsbCurrent&#45;&gt;tsbSavings -->
<g id="edge13" class="edge"><title>tsbCurrent&#45;&gt;tsbSavings</title>
<path fill="none" stroke="black" d="M886.304,-100.663C886.304,-88.7433 886.304,-74.239 886.304,-61.2264"/>
<polygon fill="black" stroke="black" points="889.804,-61.1881 886.304,-51.1882 882.804,-61.1882 889.804,-61.1881"/>
<text text-anchor="middle" x="900.304" y="-71.7117" font-family="Times,serif" font-size="14.00">£250</text>
</g>
<!-- halifaxCurrent&#45;&gt;lloydsCurrent -->
<g id="edge11" class="edge"><title>halifaxCurrent&#45;&gt;lloydsCurrent</title>
<path fill="none" stroke="black" d="M104.326,-249.529C125.391,-261.467 153.118,-275.732 179.304,-284.735 228.056,-301.497 285.211,-312.214 329.452,-318.687"/>
<polygon fill="black" stroke="black" points="329.152,-322.18 339.545,-320.124 330.138,-315.25 329.152,-322.18"/>
<text text-anchor="middle" x="193.304" y="-273.535" font-family="Times,serif" font-size="14.00">£800</text>
</g>
<!-- halifaxCurrent&#45;&gt;waterAid -->
<g id="edge15" class="edge"><title>halifaxCurrent&#45;&gt;waterAid</title>
<path fill="none" stroke="lightblue" d="M119.582,-209.535C129.058,-206.716 138.935,-204.002 148.304,-201.823 299.205,-166.73 481.183,-143.156 568.16,-133.013"/>
<polygon fill="lightblue" stroke="lightblue" points="568.756,-136.468 578.288,-131.843 567.952,-129.514 568.756,-136.468"/>
<text text-anchor="middle" x="310.304" y="-172.623" font-family="Times,serif" font-size="14.00">£2</text>
</g>
<!-- amex -->
<g id="node12" class="node"><title>amex</title>
<ellipse fill="none" stroke="black" cx="69.3041" cy="-126.368" rx="29.0172" ry="18"/>
<text text-anchor="middle" x="69.3041" y="-122.168" font-family="Times,serif" font-size="14.00">amex</text>
</g>
<!-- halifaxCurrent&#45;&gt;amex -->
<g id="edge16" class="edge"><title>halifaxCurrent&#45;&gt;amex</title>
<path fill="none" stroke="lightblue" d="M69.3041,-201.575C69.3041,-187.301 69.3041,-169.321 69.3041,-154.634"/>
<polygon fill="lightblue" stroke="lightblue" points="72.8042,-154.622 69.3041,-144.622 65.8042,-154.622 72.8042,-154.622"/>
<text text-anchor="middle" x="96.3231" y="-172.623" font-family="Times,serif" font-size="14.00">credit bill</text>
</g>
<!-- santander -->
<g id="node9" class="node"><title>santander</title>
<ellipse fill="none" stroke="black" cx="731.304" cy="-227.279" rx="80.0003" ry="25.4118"/>
<text text-anchor="middle" x="731.304" y="-230.079" font-family="Times,serif" font-size="14.00">santander current</text>
<text text-anchor="middle" x="731.304" y="-216.079" font-family="Times,serif" font-size="14.00">3%</text>
</g>
<!-- santander&#45;&gt;waterAid -->
<g id="edge1" class="edge"><title>santander&#45;&gt;waterAid</title>
<path fill="none" stroke="lightblue" d="M705.045,-203.089C686.879,-187.045 662.83,-165.807 644.826,-149.907"/>
<polygon fill="lightblue" stroke="lightblue" points="646.834,-147.011 637.022,-143.015 642.2,-152.258 646.834,-147.011"/>
<text text-anchor="middle" x="689.304" y="-172.623" font-family="Times,serif" font-size="14.00">£2</text>
</g>
<!-- redCross -->
<g id="node13" class="node"><title>redCross</title>
<ellipse fill="none" stroke="black" cx="731.304" cy="-126.368" rx="41.5699" ry="18"/>
<text text-anchor="middle" x="731.304" y="-122.168" font-family="Times,serif" font-size="14.00">red cross</text>
</g>
<!-- santander&#45;&gt;redCross -->
<g id="edge2" class="edge"><title>santander&#45;&gt;redCross</title>
<path fill="none" stroke="lightblue" d="M731.304,-201.575C731.304,-187.301 731.304,-169.321 731.304,-154.634"/>
<polygon fill="lightblue" stroke="lightblue" points="734.804,-154.622 731.304,-144.622 727.804,-154.622 734.804,-154.622"/>
<text text-anchor="middle" x="738.304" y="-172.623" font-family="Times,serif" font-size="14.00">£2</text>
</g>
<!-- nationwideCurrent&#45;&gt;tsbCurrent -->
<g id="edge10" class="edge"><title>nationwideCurrent&#45;&gt;tsbCurrent</title>
<path fill="none" stroke="black" d="M956.055,-209.5C944.148,-195.48 926.855,-175.117 912.468,-158.176"/>
<polygon fill="black" stroke="black" points="914.815,-155.533 905.674,-150.176 909.48,-160.064 914.815,-155.533"/>
<text text-anchor="middle" x="947.304" y="-172.623" font-family="Times,serif" font-size="14.00">£500</text>
</g>
</g>
</svg>
