<?xml version="1.0" encoding="UTF-8" standalone="no"?>
<!DOCTYPE svg PUBLIC "-//W3C//DTD SVG 1.1//EN"
 "http://www.w3.org/Graphics/SVG/1.1/DTD/svg11.dtd">
<!-- Generated by graphviz version 2.38.0 (20140413.2041)
 -->
<!-- Title: bank&#45;flow Pages: 1 -->
<svg width="1326pt" height="839pt"
 viewBox="0.00 0.00 1326.31 838.95" xmlns="http://www.w3.org/2000/svg" xmlns:xlink="http://www.w3.org/1999/xlink">
<g id="graph0" class="graph" transform="scale(1 1) rotate(0) translate(4 834.948)">
<title>bank&#45;flow</title>
<polygon fill="white" stroke="none" points="-4,4 -4,-834.948 1322.31,-834.948 1322.31,4 -4,4"/>
<!-- wages -->
<g id="node1" class="node"><title>wages</title>
<ellipse fill="none" stroke="black" cx="36" cy="-638.17" rx="36" ry="18"/>
<text text-anchor="middle" x="36" y="-633.97" font-family="Times,serif" font-size="14.00">wages</text>
</g>
<!-- lloydsCurrent -->
<g id="node2" class="node"><title>lloydsCurrent</title>
<ellipse fill="none" stroke="black" cx="780.409" cy="-551.084" rx="66.0439" ry="25.4118"/>
<text text-anchor="middle" x="780.409" y="-553.884" font-family="Times,serif" font-size="14.00">lloyds current</text>
<text text-anchor="middle" x="780.409" y="-539.884" font-family="Times,serif" font-size="14.00">4%</text>
</g>
<!-- wages&#45;&gt;lloydsCurrent -->
<g id="edge3" class="edge"><title>wages&#45;&gt;lloydsCurrent</title>
<path fill="none" stroke="black" d="M71.4036,-634.028C186.264,-620.591 550.164,-578.02 707.151,-559.655"/>
<polygon fill="black" stroke="black" points="707.661,-563.119 717.187,-558.48 706.848,-556.166 707.661,-563.119"/>
<text text-anchor="middle" x="379.956" y="-599.641" font-family="Times,serif" font-size="14.00">???</text>
</g>
<!-- halifaxCurrent -->
<g id="node5" class="node"><title>halifaxCurrent</title>
<ellipse fill="none" stroke="black" cx="780.409" cy="-725.256" rx="69.1087" ry="25.4118"/>
<text text-anchor="middle" x="780.409" y="-728.056" font-family="Times,serif" font-size="14.00">halifax current</text>
<text text-anchor="middle" x="780.409" y="-714.056" font-family="Times,serif" font-size="14.00">£5pm</text>
</g>
<!-- lloydsCurrent&#45;&gt;halifaxCurrent -->
<g id="edge8" class="edge"><title>lloydsCurrent&#45;&gt;halifaxCurrent</title>
<path fill="none" stroke="black" d="M775.453,-576.784C773.29,-606.584 773.082,-655.895 774.83,-689.441"/>
<polygon fill="black" stroke="black" points="771.356,-689.97 775.466,-699.735 778.343,-689.538 771.356,-689.97"/>
<text text-anchor="middle" x="761.142" y="-635.913" font-family="Times,serif" font-size="14.00">£800</text>
</g>
<!-- halifaxIsa -->
<g id="node6" class="node"><title>halifaxIsa</title>
<ellipse fill="none" stroke="black" cx="409.505" cy="-722.912" rx="52.0409" ry="25.4118"/>
<text text-anchor="middle" x="409.505" y="-725.712" font-family="Times,serif" font-size="14.00">halifax isa</text>
<text text-anchor="middle" x="409.505" y="-711.712" font-family="Times,serif" font-size="14.00">3.5%</text>
</g>
<!-- lloydsCurrent&#45;&gt;halifaxIsa -->
<g id="edge12" class="edge"><title>lloydsCurrent&#45;&gt;halifaxIsa</title>
<path fill="none" stroke="black" d="M737.861,-570.795C668.024,-603.149 529.582,-667.284 456.78,-701.011"/>
<polygon fill="black" stroke="black" points="454.985,-697.985 447.383,-705.365 457.927,-704.337 454.985,-697.985"/>
<text text-anchor="middle" x="583.32" y="-638.703" font-family="Times,serif" font-size="14.00">£200</text>
</g>
<!-- netflix -->
<g id="node7" class="node"><title>netflix</title>
<ellipse fill="none" stroke="black" cx="407.03" cy="-566.826" rx="32.9168" ry="18"/>
<text text-anchor="middle" x="407.03" y="-562.626" font-family="Times,serif" font-size="14.00">netflix</text>
</g>
<!-- lloydsCurrent&#45;&gt;netflix -->
<g id="edge4" class="edge"><title>lloydsCurrent&#45;&gt;netflix</title>
<path fill="none" stroke="lightgreen" d="M714.515,-553.862C638.363,-557.073 515.216,-562.265 450.286,-565.002"/>
<polygon fill="lightgreen" stroke="lightgreen" points="449.845,-561.517 440.001,-565.436 450.14,-568.511 449.845,-561.517"/>
<text text-anchor="middle" x="566.651" y="-562.232" font-family="Times,serif" font-size="14.00">£8.99</text>
</g>
<!-- giffGaff -->
<g id="node8" class="node"><title>giffGaff</title>
<ellipse fill="none" stroke="black" cx="453.939" cy="-431.685" rx="39.0243" ry="18"/>
<text text-anchor="middle" x="453.939" y="-427.485" font-family="Times,serif" font-size="14.00">giff gaff</text>
</g>
<!-- lloydsCurrent&#45;&gt;giffGaff -->
<g id="edge5" class="edge"><title>lloydsCurrent&#45;&gt;giffGaff</title>
<path fill="none" stroke="lightgreen" d="M732.237,-533.467C667.719,-509.87 554.407,-468.429 494.197,-446.408"/>
<polygon fill="lightgreen" stroke="lightgreen" points="495.246,-443.065 484.652,-442.917 492.842,-449.639 495.246,-443.065"/>
<text text-anchor="middle" x="606.217" y="-492.737" font-family="Times,serif" font-size="14.00">£5</text>
</g>
<!-- salvationArmy -->
<g id="node10" class="node"><title>salvationArmy</title>
<ellipse fill="none" stroke="black" cx="565.329" cy="-300.294" rx="62.3326" ry="18"/>
<text text-anchor="middle" x="565.329" y="-296.094" font-family="Times,serif" font-size="14.00">salvation army</text>
</g>
<!-- lloydsCurrent&#45;&gt;salvationArmy -->
<g id="edge6" class="edge"><title>lloydsCurrent&#45;&gt;salvationArmy</title>
<path fill="none" stroke="lightblue" d="M759.394,-526.581C718.526,-478.927 628.717,-374.206 587.186,-325.78"/>
<polygon fill="lightblue" stroke="lightblue" points="589.648,-323.275 580.481,-317.962 584.335,-327.832 589.648,-323.275"/>
<text text-anchor="middle" x="666.29" y="-428.98" font-family="Times,serif" font-size="14.00">£2</text>
</g>
<!-- waterAid -->
<g id="node11" class="node"><title>waterAid</title>
<ellipse fill="none" stroke="black" cx="931.246" cy="-638.17" rx="42.5219" ry="18"/>
<text text-anchor="middle" x="931.246" y="-633.97" font-family="Times,serif" font-size="14.00">water aid</text>
</g>
<!-- lloydsCurrent&#45;&gt;waterAid -->
<g id="edge7" class="edge"><title>lloydsCurrent&#45;&gt;waterAid</title>
<path fill="none" stroke="lightblue" d="M817.307,-572.388C841.591,-586.408 873.158,-604.633 896.906,-618.344"/>
<polygon fill="lightblue" stroke="lightblue" points="895.182,-621.39 905.593,-623.359 898.682,-615.328 895.182,-621.39"/>
<text text-anchor="middle" x="850.107" y="-598.166" font-family="Times,serif" font-size="14.00">£2</text>
</g>
<!-- nationwideCurrent -->
<g id="node14" class="node"><title>nationwideCurrent</title>
<ellipse fill="none" stroke="black" cx="891.247" cy="-396.429" rx="76.8064" ry="18"/>
<text text-anchor="middle" x="891.247" y="-392.229" font-family="Times,serif" font-size="14.00">nationwide current</text>
</g>
<!-- lloydsCurrent&#45;&gt;nationwideCurrent -->
<g id="edge9" class="edge"><title>lloydsCurrent&#45;&gt;nationwideCurrent</title>
<path fill="none" stroke="black" d="M798.217,-526.236C818.514,-497.915 851.556,-451.811 872.312,-422.85"/>
<polygon fill="black" stroke="black" points="875.35,-424.618 878.331,-414.451 869.661,-420.541 875.35,-424.618"/>
<text text-anchor="middle" x="817.764" y="-477.343" font-family="Times,serif" font-size="14.00">£1000</text>
</g>
<!-- tsbCurrent -->
<g id="node3" class="node"><title>tsbCurrent</title>
<ellipse fill="none" stroke="black" cx="940.34" cy="-200.46" rx="53.2444" ry="25.4118"/>
<text text-anchor="middle" x="940.34" y="-203.26" font-family="Times,serif" font-size="14.00">tsb current</text>
<text text-anchor="middle" x="940.34" y="-189.26" font-family="Times,serif" font-size="14.00">5%</text>
</g>
<!-- tsbSavings -->
<g id="node4" class="node"><title>tsbSavings</title>
<ellipse fill="none" stroke="black" cx="984.181" cy="-25.4558" rx="55.0794" ry="25.4118"/>
<text text-anchor="middle" x="984.181" y="-28.2558" font-family="Times,serif" font-size="14.00">tsb savings</text>
<text text-anchor="middle" x="984.181" y="-14.2558" font-family="Times,serif" font-size="14.00">5%</text>
</g>
<!-- tsbCurrent&#45;&gt;tsbSavings -->
<g id="edge13" class="edge"><title>tsbCurrent&#45;&gt;tsbSavings</title>
<path fill="none" stroke="black" d="M946.715,-175.013C954.248,-144.944 966.826,-94.7324 975.308,-60.8755"/>
<polygon fill="black" stroke="black" points="978.763,-61.4844 977.798,-50.9336 971.973,-59.7833 978.763,-61.4844"/>
<text text-anchor="middle" x="947.011" y="-120.744" font-family="Times,serif" font-size="14.00">£250</text>
</g>
<!-- halifaxCurrent&#45;&gt;lloydsCurrent -->
<g id="edge11" class="edge"><title>halifaxCurrent&#45;&gt;lloydsCurrent</title>
<path fill="none" stroke="black" d="M785.364,-699.556C787.527,-669.757 787.735,-620.446 785.987,-586.899"/>
<polygon fill="black" stroke="black" points="789.461,-586.371 785.351,-576.606 782.475,-586.803 789.461,-586.371"/>
<text text-anchor="middle" x="799.676" y="-646.028" font-family="Times,serif" font-size="14.00">£800</text>
</g>
<!-- halifaxCurrent&#45;&gt;waterAid -->
<g id="edge14" class="edge"><title>halifaxCurrent&#45;&gt;waterAid</title>
<path fill="none" stroke="lightblue" d="M817.694,-703.729C841.877,-689.767 873.16,-671.706 896.765,-658.078"/>
<polygon fill="lightblue" stroke="lightblue" points="898.815,-660.936 905.725,-652.905 895.315,-654.873 898.815,-660.936"/>
<text text-anchor="middle" x="850.229" y="-683.703" font-family="Times,serif" font-size="14.00">£2</text>
</g>
<!-- amex -->
<g id="node12" class="node"><title>amex</title>
<ellipse fill="none" stroke="black" cx="729.78" cy="-812.948" rx="29.0172" ry="18"/>
<text text-anchor="middle" x="729.78" y="-808.748" font-family="Times,serif" font-size="14.00">amex</text>
</g>
<!-- halifaxCurrent&#45;&gt;amex -->
<g id="edge15" class="edge"><title>halifaxCurrent&#45;&gt;amex</title>
<path fill="none" stroke="lightblue" d="M765.765,-750.62C759.128,-762.115 751.294,-775.685 744.632,-787.223"/>
<polygon fill="lightblue" stroke="lightblue" points="741.556,-785.551 739.587,-795.962 747.618,-789.051 741.556,-785.551"/>
<text text-anchor="middle" x="728.179" y="-771.721" font-family="Times,serif" font-size="14.00">credit bill</text>
</g>
<!-- santander -->
<g id="node9" class="node"><title>santander</title>
<ellipse fill="none" stroke="black" cx="1083" cy="-638.17" rx="80.0003" ry="25.4118"/>
<text text-anchor="middle" x="1083" y="-640.97" font-family="Times,serif" font-size="14.00">santander current</text>
<text text-anchor="middle" x="1083" y="-626.97" font-family="Times,serif" font-size="14.00">3%</text>
</g>
<!-- santander&#45;&gt;waterAid -->
<g id="edge1" class="edge"><title>santander&#45;&gt;waterAid</title>
<path fill="none" stroke="lightblue" d="M1003.12,-638.17C996.717,-638.17 990.351,-638.17 984.206,-638.17"/>
<polygon fill="lightblue" stroke="lightblue" points="984.107,-634.67 974.107,-638.17 984.107,-641.67 984.107,-634.67"/>
<text text-anchor="middle" x="986.664" y="-640.97" font-family="Times,serif" font-size="14.00">£2</text>
</g>
<!-- redCross -->
<g id="node13" class="node"><title>redCross</title>
<ellipse fill="none" stroke="black" cx="1276.53" cy="-638.17" rx="41.5699" ry="18"/>
<text text-anchor="middle" x="1276.53" y="-633.97" font-family="Times,serif" font-size="14.00">red cross</text>
</g>
<!-- santander&#45;&gt;redCross -->
<g id="edge2" class="edge"><title>santander&#45;&gt;redCross</title>
<path fill="none" stroke="lightblue" d="M1162.83,-638.17C1183.65,-638.17 1205.55,-638.17 1224.51,-638.17"/>
<polygon fill="lightblue" stroke="lightblue" points="1224.72,-641.67 1234.72,-638.17 1224.72,-634.67 1224.72,-641.67"/>
<text text-anchor="middle" x="1186.67" y="-640.97" font-family="Times,serif" font-size="14.00">£2</text>
</g>
<!-- nationwideCurrent&#45;&gt;tsbCurrent -->
<g id="edge10" class="edge"><title>nationwideCurrent&#45;&gt;tsbCurrent</title>
<path fill="none" stroke="black" d="M895.778,-378.344C903.891,-345.956 921.033,-277.529 931.532,-235.619"/>
<polygon fill="black" stroke="black" points="934.95,-236.379 933.985,-225.828 928.16,-234.678 934.95,-236.379"/>
<text text-anchor="middle" x="899.655" y="-309.782" font-family="Times,serif" font-size="14.00">£500</text>
</g>
</g>
</svg>
